# xmcd
#
# Track frame offsets: 
#        150
#        14351
#        28560
#        42570
#        54506
#        67266
#        79856
#        93278
#        107019
#        125114
#
# Disc length: 2180 seconds
#
# Revision: 0
# Processed by: cddbd v1.5.2PL0 Copyright (c) Steve Scherf et al.
# Submitted via: ExactAudioCopyFreeDBPlugin 1.0
#
DISCID=8708820a
DTITLE=Clarence Reid - Running Water
DYEAR=1973
DGENRE=Soul
TTITLE0=Living Together
TTITLE1=New York City
TTITLE2=It Was Good Enough For Daddy
TTITLE3=Real Woman
TTITLE4=Please Accept My Call
TTITLE5=The Truth
TTITLE6=Ruby
TTITLE7=Love Who You Can
TTITLE8=Please Stay Home
TTITLE9=Like Running Water
EXTD=
EXTT0=
EXTT1=
EXTT2=
EXTT3=
EXTT4=
EXTT5=
EXTT6=
EXTT7=
EXTT8=
EXTT9=
PLAYORDER=
